HIERARCHY
ROOT Hips
{
    OFFSET 0.000000 0.000000 0.000000
    CHANNELS 6 Xposition Yposition Zposition Zrotation Xrotation Yrotation
    JOINT Spine
    {
        OFFSET -0.000000 7.246840 0.000000
        CHANNELS 3 Zrotation Xrotation Yrotation
        JOINT Spine1
        {
            OFFSET -0.000000 20.289354 0.000000
            CHANNELS 3 Zrotation Xrotation Yrotation
            JOINT Neck
            {
                OFFSET -0.000000 20.206032 1.836912
                CHANNELS 3 Zrotation Xrotation Yrotation
                JOINT Head
                {
                    OFFSET -0.000000 12.372654 -1.767522
                    CHANNELS 3 Zrotation Xrotation Yrotation
                    End Site
                    {
                        OFFSET -0.000000 22.094025 0.000000
                    }
                }
            }
            JOINT LeftShoulder
            {
                OFFSET 3.465871 17.201674 -0.568930
                CHANNELS 3 Zrotation Xrotation Yrotation
                JOINT LeftArm
                {
                    OFFSET 14.070313 0.000000 0.000000
                    CHANNELS 3 Zrotation Xrotation Yrotation
                    JOINT LeftForeArm
                    {
                        OFFSET 26.549477 0.000000 0.000000
                        CHANNELS 3 Zrotation Xrotation Yrotation
                        JOINT LeftHand
                        {
                            OFFSET 18.880413 0.000000 0.000000
                            CHANNELS 3 Zrotation Xrotation Yrotation
                            End Site
                            {
                                OFFSET 13.256415 0.000000 0.000000
                            }
                        }
                    }
                }
            }
            JOINT RightShoulder
            {
                OFFSET -3.526370 17.201674 -0.568930
                CHANNELS 3 Zrotation Xrotation Yrotation
                JOINT RightArm
                {
                    OFFSET -14.070313 0.000000 0.000000
                    CHANNELS 3 Zrotation Xrotation Yrotation
                    JOINT RightForeArm
                    {
                        OFFSET -26.549477 0.000000 0.000000
                        CHANNELS 3 Zrotation Xrotation Yrotation
                        JOINT RightHand
                        {
                            OFFSET -18.880413 0.000000 0.000000
                            CHANNELS 3 Zrotation Xrotation Yrotation
                            End Site
                            {
                                OFFSET -13.256415 0.000000 0.000000
                            }
                        }
                    }
                }
            }
        }
    }
    JOINT LeftUpLeg
    {
        OFFSET 8.837609 0.000000 0.000000
        CHANNELS 3 Zrotation Xrotation Yrotation
        JOINT LeftLeg
        {
            OFFSET -0.000000 -41.345005 0.000000
            CHANNELS 3 Zrotation Xrotation Yrotation
            JOINT LeftFoot
            {
                OFFSET -0.000000 -35.500874 0.000000
                CHANNELS 3 Zrotation Xrotation Yrotation
                JOINT LeftToeBase
                {
                    OFFSET -0.000000 -5.744446 13.256415
                    CHANNELS 3 Zrotation Xrotation Yrotation
                    End Site
                    {
                        OFFSET -0.000000 0.000000 3.535044
                    }
                }
            }
        }
    }
    JOINT RightUpLeg
    {
        OFFSET -8.837609 0.000000 0.000000
        CHANNELS 3 Zrotation Xrotation Yrotation
        JOINT RightLeg
        {
            OFFSET -0.000000 -41.345005 0.000000
            CHANNELS 3 Zrotation Xrotation Yrotation
            JOINT RightFoot
            {
                OFFSET -0.000000 -35.500874 0.000000
                CHANNELS 3 Zrotation Xrotation Yrotation
                JOINT RightToeBase
                {
                    OFFSET -0.000000 -5.744446 13.256415
                    CHANNELS 3 Zrotation Xrotation Yrotation
                    End Site
                    {
                        OFFSET -0.000000 0.000000 3.535044
                    }
                }
            }
        }
    }
}
MOTION
Frames:    9
Frame Time:    0.010000
7.283250    9.878470    -43.185608    8.168386    -38.765751    1.551360    -17.423000    25.051229    -2.991209    90.509460    26.097176    -33.212643    -109.668541    -3.565039    -30.566135    38.163113    -0.462367    2.742000    -77.867371    -20.670097    -31.781719    -1.865653    8.400110    -3.552546    159.995987    46.320984    -15.435713    33.042549    80.980423    -68.579773    90.290665    -40.742977    -109.243935    114.247467    -13.871081    -55.866707    12.501846    0.575248    128.809189    -44.052689    -29.785328    12.601785    16.771387    -41.638916    17.490423    -7.696459    -8.076747    46.654987    27.070169    30.593420    -43.256763    0.358275    -4.624674    -0.516275    -33.113964    -45.486225    -20.490541    3.377298    -3.373064    -5.300060    17.296722    42.300133    -10.118809    0.160473    -0.537023    -0.289460    
7.282320    9.878823    -43.184566    8.169970    -38.754581    1.529342    -17.446236    25.093248    -3.069805    90.478546    25.971205    -33.162670    -109.668541    -3.565039    -30.566135    38.163113    -0.462367    2.742000    -77.861771    -20.671446    -31.839680    -1.863240    8.465761    -3.544500    159.977615    46.410580    -15.400106    32.507664    80.989143    -68.106216    90.290665    -40.742977    -109.243935    114.282486    -13.851171    -55.901505    12.423514    0.446600    128.838928    -44.030777    -29.761343    12.608746    16.792786    -41.637569    17.506155    -7.701105    -8.089469    46.657322    27.130335    30.557447    -43.288925    0.339875    -4.591779    -0.489655    -33.100006    -45.514431    -20.477875    3.373399    -3.361410    -5.264372    17.312231    42.296288    -10.190796    0.148929    -0.570138    -0.268733    
7.281806    9.880404    -43.182091    8.180200    -38.739998    1.527353    -17.418024    25.105911    -3.214013    90.560242    25.929483    -33.296452    -109.668541    -3.565039    -30.566135    38.163113    -0.462367    2.742000    -77.870789    -20.664083    -31.888062    -1.798034    8.565000    -3.617708    159.816437    46.952553    -15.253750    31.672911    80.696732    -67.133904    90.290665    -40.742977    -109.243935    114.157852    -13.670106    -55.913731    12.372007    0.406816    128.913010    -44.219646    -29.677328    12.386590    16.792192    -41.644325    17.515249    -7.697606    -8.098473    46.663769    27.149134    30.557409    -43.303772    0.350183    -4.578610    -0.504463    -33.105774    -45.528233    -20.471905    3.371558    -3.367720    -5.257773    17.271141    42.304794    -10.168868    0.179863    -0.572673    -0.324560    
7.276062    9.880590    -43.180717    8.186431    -38.727562    1.517184    -17.402346    25.122013    -3.259049    90.466370    25.851868    -33.220955    -109.668541    -3.565039    -30.566135    38.163113    -0.462367    2.742000    -77.855713    -20.670963    -31.953972    -1.795161    8.217957    -3.617825    159.840500    46.297729    -15.385950    31.887846    80.832664    -67.265556    90.290665    -40.742977    -109.243935    114.071846    -13.809368    -56.018272    12.408846    0.530470    128.908936    -44.170811    -29.677744    12.509849    16.819004    -41.650757    17.527470    -7.714455    -8.094072    46.673412    27.111057    30.601221    -43.247589    0.363272    -4.590156    -0.523358    -33.091526    -45.547630    -20.460222    3.360725    -3.375384    -5.210978    17.305775    42.307411    -10.220730    0.174661    -0.586830    -0.315223    
7.273491    9.880722    -43.178986    8.195468    -38.713634    1.504385    -17.412094    25.149488    -3.317188    90.451607    25.764885    -33.191635    -109.668541    -3.565039    -30.566135    38.163113    -0.462367    2.742000    -77.843872    -20.676390    -32.005241    -1.792169    8.255701    -3.577426    159.815994    46.406979    -15.349629    31.311592    80.839851    -66.787392    90.290665    -40.742977    -109.243935    114.040695    -13.804461    -56.047573    12.375531    0.521178    128.937515    -44.177101    -29.640858    12.520288    16.828676    -41.652058    17.578659    -7.706077    -8.097925    46.675293    27.117189    30.586695    -43.296040    0.353461    -4.596722    -0.509245    -33.086910    -45.567753    -20.430937    3.365888    -3.385131    -5.227649    17.302980    42.325760    -10.206013    0.161520    -0.586695    -0.291505    
7.268889    9.881862    -43.177452    8.208813    -38.707474    1.508445    -17.418619    25.184052    -3.353889    90.424339    25.675444    -33.133389    -109.668541    -3.565039    -30.566135    38.163113    -0.462367    2.742000    -77.829651    -20.683418    -32.052040    -1.773457    8.372878    -3.568504    159.797104    46.575909    -15.294488    31.031103    80.779930    -66.541687    90.290665    -40.742977    -109.243935    114.019127    -13.836973    -56.093273    12.363715    0.536175    128.954727    -44.133015    -29.625999    12.567348    16.824768    -41.645939    17.607548    -7.702900    -8.112615    46.670460    27.089966    30.632109    -43.273029    0.370086    -4.641556    -0.533354    -33.086868    -45.570679    -20.409492    3.366946    -3.400149    -5.204208    17.310856    42.339294    -10.202168    0.180519    -0.575474    -0.325754    
7.266308    9.883361    -43.175369    8.221738    -38.695648    1.505930    -17.417063    25.210104    -3.390083    90.389435    25.599661    -33.081951    -109.668541    -3.565039    -30.566135    38.163113    -0.462367    2.742000    -77.829048    -20.682648    -32.082722    -1.716885    8.613179    -3.601474    159.882339    47.230968    -15.176754    32.710838    80.514130    -68.030487    90.290665    -40.742977    -109.243935    114.018547    -13.869589    -56.127510    12.328281    0.516981    128.975555    -44.097214    -29.598322    12.615639    16.847509    -41.648830    17.598177    -7.717728    -8.112338    46.707935    27.065594    30.639456    -43.238033    0.367831    -4.640372    -0.530100    -33.087708    -45.588242    -20.407152    3.369374    -3.400830    -5.223239    17.275009    42.363823    -10.116886    0.190280    -0.574086    -0.343364    
7.263160    9.885472    -43.173424    8.228288    -38.686653    1.499062    -17.408644    25.235226    -3.420377    90.373955    25.532440    -33.040028    -109.668541    -3.565039    -30.566135    38.163113    -0.462367    2.742000    -77.824165    -20.684694    -32.108620    -1.695228    8.583546    -3.592445    159.857941    47.180046    -15.153445    32.277420    80.486755    -67.740479    90.290665    -40.742977    -109.243935    114.032135    -13.877389    -56.155056    12.283572    0.476060    128.984680    -44.111740    -29.566566    12.652129    16.855984    -41.642761    17.621893    -7.715261    -8.120972    46.720798    27.044472    30.634380    -43.227718    0.344416    -4.614665    -0.496272    -33.083302    -45.603363    -20.389725    3.369864    -3.402770    -5.191876    17.278812    42.367184    -10.123286    0.173314    -0.583596    -0.312781    
7.258586    9.887260    -43.173630    8.239205    -38.674908    1.484317    -17.407049    25.255787    -3.435445    90.344276    25.470005    -32.982384    -109.668541    -3.565039    -30.566135    38.163113    -0.462367    2.742000    -77.798447    -20.699587    -32.136665    -1.724378    8.266923    -3.515040    159.864502    46.563652    -15.265123    32.162434    80.613152    -67.647072    90.290665    -40.742977    -109.243935    113.998444    -13.935465    -56.177227    12.242798    0.513782    128.968246    -43.952915    -29.539522    12.965557    16.870852    -41.634190    17.656990    -7.708498    -8.138556    46.741375    27.024855    30.653090    -43.199547    0.354316    -4.617558    -0.510546    -33.068947    -45.633022    -20.364038    3.366287    -3.393161    -5.176186    17.308069    42.372105    -10.118688    0.187908    -0.573034    -0.339080    
